<svg width="160" height="33" viewBox="0 0 160 33" fill="none" xmlns="http://www.w3.org/2000/svg">
<g clip-path="url(#clip0_4645_153)">
<path d="M154.511 6.35083L149.052 12.4689V6.35083H145.102V21.7953H149.052V15.2929L154.896 21.7953H159.999L152.812 13.703L159.479 6.35083H154.511Z" fill="white"/>
<path d="M138.137 12.1109H132.677V6.35083H128.725V21.7953H132.677V15.7058H138.137V21.7953H142.087V6.35083H138.137V12.1109Z" fill="white"/>
<mask id="mask0_4645_153" style="mask-type:luminance" maskUnits="userSpaceOnUse" x="0" y="0" width="160" height="33">
<path d="M160 0H0V32.1493H160V0Z" fill="white"/>
</mask>
<g mask="url(#mask0_4645_153)">
<path d="M23.4573 14.7176C23.3629 17.5987 22.9917 18.1741 21.3711 18.1741V21.7953H21.975C26.0134 21.7953 26.9841 19.7091 27.1334 15.0733L27.2981 9.94348H31.084V21.7953H35.0346V6.35083H23.7318L23.4573 14.7176Z" fill="white"/>
<path d="M44.8559 11.0415H42.0033V6.35083H38.0527V21.7953H44.9108C49.2194 21.7953 50.7544 18.9976 50.7544 16.3624C50.7544 12.9608 48.6133 11.0393 44.8559 11.0393M44.5551 18.3915H42.0033V14.4672H44.5551C45.9276 14.4672 46.7489 15.0711 46.7489 16.3602C46.7489 17.759 45.9539 18.3915 44.5551 18.3915Z" fill="white"/>
<path d="M63.62 5.99277V0.259033H59.6694V5.99277C55.1435 6.37707 52.0977 9.58761 52.0977 14.0586C52.0977 18.5297 55.1435 21.7688 59.6694 22.1531V27.9703H63.62V22.1531C68.146 21.7973 71.1918 18.5582 71.1918 14.0586C71.1918 9.55906 68.146 6.34852 63.62 5.99277ZM59.6694 18.4221C57.4756 18.119 56.1031 16.4742 56.1031 14.0608C56.1031 11.6474 57.4756 10.0005 59.6694 9.6996V18.4243V18.4221ZM63.62 18.4221V9.69741C65.8138 9.99826 67.1863 11.6453 67.1863 14.0586C67.1863 16.472 65.8138 18.119 63.62 18.4199" fill="white"/>
<path d="M86.0076 17.0496V11.8648C86.0076 8.07894 83.5942 5.69189 79.5338 5.69189C75.4734 5.69189 73.1149 8.21729 72.9217 10.8503H76.9271C77.0633 10.2749 77.6672 9.28674 79.5338 9.28674C81.071 9.28674 82.057 10.0004 82.057 11.8648H78.1327C74.6213 11.8648 72.5352 13.7029 72.5352 16.7751C72.5352 19.8473 74.8168 22.1794 78.1042 22.1794C80.5154 22.1794 81.855 21.0397 82.4391 20.1767C82.9595 21.2198 84.1124 21.7951 85.6211 21.7951H86.9936V18.2288C86.2799 18.2288 86.0054 17.8994 86.0054 17.0496M82.0548 16.035C82.0548 17.8182 80.7921 18.8327 79.1473 18.8327C77.7199 18.8327 76.5955 18.3123 76.5955 16.7751C76.5955 15.2379 77.8297 15.0205 78.8991 15.0205H82.0548V16.035Z" fill="white"/>
<path d="M102.937 8.54452H98.5206V4.18327H108.754V0.259033H94.3789V21.7951H102.939C107.684 21.7951 110.401 19.4366 110.401 15.1018C110.401 11.015 107.684 8.54452 102.939 8.54452M102.748 17.8995H98.5227V12.3019H102.748C104.942 12.3019 106.178 13.3164 106.178 15.0996C106.178 16.8827 104.944 17.8973 102.748 17.8973" fill="white"/>
<path d="M125.515 17.0496V11.8648C125.515 8.07894 123.102 5.69189 119.042 5.69189C114.981 5.69189 112.623 8.21729 112.429 10.8503H116.435C116.571 10.2749 117.175 9.28674 119.042 9.28674C120.579 9.28674 121.565 10.0004 121.565 11.8648H117.641C114.129 11.8648 112.043 13.7029 112.043 16.7751C112.043 19.8473 114.325 22.1794 117.612 22.1794C120.023 22.1794 121.363 21.0397 121.947 20.1767C122.467 21.2198 123.62 21.7951 125.129 21.7951H126.501V18.2288C125.788 18.2288 125.513 17.8994 125.513 17.0496M121.563 16.035C121.563 17.8182 120.3 18.8327 118.655 18.8327C117.228 18.8327 116.103 18.3123 116.103 16.7751C116.103 15.2379 117.338 15.0205 118.407 15.0205H121.563V16.035Z" fill="white"/>
<path d="M21.1255 27.7595H0V32.1493H21.1255V27.7595Z" fill="white"/>
<path d="M14.4038 3.21493C13.7999 1.41861 13.1059 0 10.7277 0C8.34942 0 7.60937 1.41202 6.97692 3.21493L0.439453 21.7952H4.77434L6.28299 17.3791H14.6234L16.0222 21.7952H20.6316L14.4038 3.21493ZM7.54569 13.6481L10.5081 4.84216H10.6179L13.4156 13.6481H7.54349H7.54569Z" fill="white"/>
</g>
</g>
<defs>
<clipPath id="clip0_4645_153">
<rect width="160" height="32.1493" fill="white"/>
</clipPath>
</defs>
</svg>
