<svg width="25" height="22" viewBox="0 0 25 22" fill="none" xmlns="http://www.w3.org/2000/svg">
<path d="M8.14768 19.5015C9.04686 20.6446 10.4594 21.3812 12.0478 21.3812C13.6362 21.3812 15.0488 20.6446 15.948 19.5015C13.3589 19.8524 10.7367 19.8524 8.14768 19.5015Z" fill="white"/>
<path d="M19.263 7.48341V8.23613C19.263 9.13948 19.5209 10.0226 20.004 10.7742C20.004 10.7742 20.1064 10.9338 21.1879 12.6162C22.2693 14.2985 21.4438 16.5853 19.5629 17.1173C14.6428 18.509 9.45295 18.509 4.53274 17.1173C2.65193 16.5853 1.82638 14.2985 2.90777 12.6162L4.09169 10.7742C4.57482 10.0226 4.83262 9.13948 4.83262 8.23613V7.48341C4.83262 3.35044 8.06298 0 12.0478 0C16.0326 0 19.263 3.35044 19.263 7.48341Z" fill="white"/>
<path fill-rule="evenodd" clip-rule="evenodd" d="M24.8637 18.475C24.6066 18.8766 24.0726 18.9939 23.671 18.7368L0.39812 3.84218C-0.00354308 3.58512 -0.120764 3.05111 0.136301 2.64945C0.393365 2.24778 0.927371 2.13056 1.32903 2.38763L24.6019 17.2822C25.0035 17.5393 25.1208 18.0733 24.8637 18.475Z" fill="white"/>
</svg>
