<svg width="60" height="60" viewBox="0 0 60 60" fill="none" xmlns="http://www.w3.org/2000/svg">
<g clip-path="url(#clip0_4264_41)">
<path fill-rule="evenodd" clip-rule="evenodd" d="M30 57.4648C45.1684 57.4648 57.4648 45.1684 57.4648 30C57.4648 14.8316 45.1684 2.53521 30 2.53521C14.8316 2.53521 2.53521 14.8316 2.53521 30C2.53521 45.1684 14.8316 57.4648 30 57.4648ZM30 60C46.5685 60 60 46.5685 60 30C60 13.4315 46.5685 0 30 0C13.4315 0 0 13.4315 0 30C0 46.5685 13.4315 60 30 60Z" fill="#0074FF"/>
<path fill-rule="evenodd" clip-rule="evenodd" d="M46 21.5689L25.5599 42L14 30.4452L15.5696 28.8763L25.5599 38.8622L44.4304 20L46 21.5689Z" fill="#0074FF"/>
</g>
<defs>
<clipPath id="clip0_4264_41">
<rect width="60" height="60" fill="white"/>
</clipPath>
</defs>
</svg>
