<svg width="70" height="70" viewBox="0 0 70 70" fill="none" xmlns="http://www.w3.org/2000/svg">
<circle cx="35" cy="35" r="35" fill="white"/>
<path fill-rule="evenodd" clip-rule="evenodd" d="M23.3661 23.3661C23.8543 22.878 24.6457 22.878 25.1339 23.3661L35.4999 33.7322L45.8661 23.3661C46.3543 22.878 47.1457 22.878 47.6339 23.3661C48.122 23.8543 48.122 24.6457 47.6339 25.1339L37.2677 35.4999L47.6338 45.866C48.1219 46.3542 48.1219 47.1456 47.6338 47.6338C47.1456 48.1219 46.3542 48.1219 45.866 47.6338L35.4999 37.2677L25.1339 47.6339C24.6457 48.122 23.8543 48.122 23.3661 47.6339C22.878 47.1457 22.878 46.3543 23.3661 45.8661L33.7322 35.4999L23.3661 25.1339C22.878 24.6457 22.878 23.8543 23.3661 23.3661Z" fill="#2B2E3A"/>
</svg>
