<svg width="20" height="20" viewBox="0 0 20 20" fill="none" xmlns="http://www.w3.org/2000/svg">
<path fill-rule="evenodd" clip-rule="evenodd" d="M0.292892 0.292892C0.683414 -0.0976305 1.31658 -0.0976305 1.7071 0.292892L9.99995 8.58575L18.2929 0.292888C18.6834 -0.0976323 19.3166 -0.0976288 19.7071 0.292896C20.0976 0.68342 20.0976 1.31658 19.7071 1.7071L11.4142 9.99995L19.707 18.2928C20.0975 18.6833 20.0975 19.3165 19.707 19.707C19.3165 20.0975 18.6833 20.0975 18.2928 19.707L9.99995 11.4142L1.7071 19.7071C1.31658 20.0976 0.68342 20.0976 0.292896 19.7071C-0.0976288 19.3166 -0.0976323 18.6834 0.292888 18.2929L8.58575 9.99995L0.292892 1.7071C-0.0976305 1.31658 -0.0976305 0.683414 0.292892 0.292892Z" fill="white"/>
</svg>
