<svg width="70" height="70" viewBox="0 0 70 70" fill="none" xmlns="http://www.w3.org/2000/svg">
<circle cx="35" cy="35" r="35" fill="white"/>
<path d="M32.8169 45.9995V29.6359H37.3553V45.9995H32.8169ZM35.0968 27.5265C34.4221 27.5265 33.8432 27.3028 33.3603 26.8553C32.8844 26.4008 32.6465 25.8575 32.6465 25.2254C32.6465 24.6004 32.8844 24.0641 33.3603 23.6167C33.8432 23.1622 34.4221 22.9349 35.0968 22.9349C35.7715 22.9349 36.3468 23.1622 36.8226 23.6167C37.3056 24.0641 37.5471 24.6004 37.5471 25.2254C37.5471 25.8575 37.3056 26.4008 36.8226 26.8553C36.3468 27.3028 35.7715 27.5265 35.0968 27.5265Z" fill="#2B2E3A"/>
</svg>
