<svg width="60" height="60" viewBox="0 0 60 60" fill="none" xmlns="http://www.w3.org/2000/svg">
<circle cx="30" cy="30" r="30" fill="#2B2E3A"/>
<path d="M28.3011 41V24.6364H30.8153V41H28.3011ZM29.5795 21.9091C29.0895 21.9091 28.6669 21.7422 28.3118 21.4084C27.9638 21.0746 27.7898 20.6733 27.7898 20.2045C27.7898 19.7358 27.9638 19.3345 28.3118 19.0007C28.6669 18.6669 29.0895 18.5 29.5795 18.5C30.0696 18.5 30.4886 18.6669 30.8366 19.0007C31.1918 19.3345 31.3693 19.7358 31.3693 20.2045C31.3693 20.6733 31.1918 21.0746 30.8366 21.4084C30.4886 21.7422 30.0696 21.9091 29.5795 21.9091Z" fill="white"/>
</svg>
