<svg width="80" height="80" viewBox="0 0 80 80" fill="none" xmlns="http://www.w3.org/2000/svg">
<path d="M38.0809 44.4259V73.36C38.0809 74.2911 36.9543 74.7563 36.2958 74.0978L5.89651 43.6978C5.69873 43.5022 5.58984 43.2348 5.58984 42.9578V8.98592C5.58984 8.06963 6.68392 7.59703 7.34984 8.2237L11.4691 12.0904L12.021 12.6422V40.3808L30.4861 58.843C31.7632 60.123 33.9521 59.2171 33.9521 57.4074V45.0326L24.8446 35.9252V33.2815C24.8446 32.3482 25.9713 31.883 26.6298 32.5415L37.775 43.6889C37.9698 43.8837 38.0809 44.1489 38.0809 44.4259Z" fill="url(#paint0_linear_4478_340)"/>
<path d="M33.9516 45.0326V57.4074C33.9516 59.217 31.7635 60.123 30.4857 58.843L12.0205 40.3807V12.6422L18.0731 18.6948C18.2687 18.8904 18.3798 19.1555 18.3798 19.4326V37.0437C18.3798 37.3207 18.4887 37.5881 18.6842 37.7837L27.5272 46.6267C27.7398 46.8393 28.0027 46.9363 28.2598 46.9363C28.7968 46.9363 29.3116 46.5178 29.3116 45.8867C29.3116 45.6096 29.2027 45.3444 29.0072 45.1489L25.1479 41.2918C24.9524 41.0941 24.8435 40.8289 24.8435 40.5518V35.9252L33.9516 45.0326Z" fill="url(#paint1_linear_4478_340)"/>
<path d="M41.4717 44.4259V73.36C41.4717 74.2911 42.5983 74.7563 43.2569 74.0978L73.6569 43.6978C73.8547 43.5022 73.9635 43.2348 73.9635 42.9578V8.98592C73.9635 8.06963 72.8695 7.59703 72.2035 8.2237L68.0843 12.0904L67.5324 12.6422V40.3808L49.0665 58.8437C47.7895 60.1237 45.6006 59.2178 45.6006 57.4082V45.0326L54.708 35.9252V33.2815C54.708 32.3482 53.5813 31.883 52.9228 32.5415L41.7783 43.6882C41.5828 43.8837 41.4717 44.1489 41.4717 44.4259Z" fill="url(#paint2_linear_4478_340)"/>
<path d="M45.6006 45.0326V57.4074C45.6006 59.217 47.7887 60.123 49.0665 58.843L67.5317 40.3807V12.6422L61.4791 18.6948C61.2835 18.8904 61.1724 19.1555 61.1724 19.4326V37.0437C61.1724 37.3207 61.0635 37.5881 60.868 37.7837L52.0243 46.6267C51.8117 46.8393 51.5487 46.9363 51.2917 46.9363C50.7547 46.9363 50.2398 46.5178 50.2398 45.8867C50.2398 45.6096 50.3487 45.3444 50.5443 45.1489L54.4036 41.2918C54.5991 41.0941 54.708 40.8289 54.708 40.5518V35.9252L45.6006 45.0326Z" fill="url(#paint3_linear_4478_340)"/>
<path d="M39.779 14.2311L34.5961 27.3881H26.5723C26.5679 26.8933 26.7568 26.3948 27.139 26.017L38.5027 14.7748C38.8575 14.4244 39.3161 14.2452 39.779 14.2311Z" fill="url(#paint4_linear_4478_340)"/>
<path d="M52.9805 27.3889H44.9568L39.7783 14.2319C40.2865 14.2096 40.8035 14.3985 41.1894 14.7845L52.4228 26.0178C52.8005 26.3956 52.985 26.8941 52.9805 27.3889Z" fill="url(#paint5_linear_4478_340)"/>
<path d="M52.9805 27.3889C52.9717 27.8697 52.7828 28.3511 52.4183 28.7148L41.0954 39.9934C40.7309 40.3578 40.2546 40.5415 39.7783 40.5504L44.9568 27.3889H52.9805Z" fill="url(#paint6_linear_4478_340)"/>
<path d="M39.7787 40.5504C39.2839 40.5548 38.7854 40.3704 38.4031 39.9934L27.1335 28.7193C26.7646 28.3504 26.5765 27.8741 26.5713 27.3889H34.595L39.7787 40.5504Z" fill="url(#paint7_linear_4478_340)"/>
<path d="M44.9572 27.3889H34.5957L39.7787 14.2311L44.9572 27.3889Z" fill="url(#paint8_linear_4478_340)"/>
<path d="M44.9572 27.3889L39.7787 40.5504L34.5957 27.3889H44.9572Z" fill="url(#paint9_linear_4478_340)"/>
<defs>
<linearGradient id="paint0_linear_4478_340" x1="-6.54297" y1="12.6683" x2="51.57" y2="70.7812" gradientUnits="userSpaceOnUse">
<stop stop-color="#E3D16B"/>
<stop offset="1" stop-color="#FAF6EE"/>
</linearGradient>
<linearGradient id="paint1_linear_4478_340" x1="-13.4858" y1="1.00502" x2="38.076" y2="52.5668" gradientUnits="userSpaceOnUse">
<stop stop-color="#FAF6EE"/>
<stop offset="1" stop-color="#E3D16B"/>
</linearGradient>
<linearGradient id="paint2_linear_4478_340" x1="86.0955" y1="12.6683" x2="27.9825" y2="70.7813" gradientUnits="userSpaceOnUse">
<stop stop-color="#E3D16B"/>
<stop offset="1" stop-color="#FAF6EE"/>
</linearGradient>
<linearGradient id="paint3_linear_4478_340" x1="93.0379" y1="1.00502" x2="41.4761" y2="52.5668" gradientUnits="userSpaceOnUse">
<stop stop-color="#FAF6EE"/>
<stop offset="1" stop-color="#E3D16B"/>
</linearGradient>
<linearGradient id="paint4_linear_4478_340" x1="33.1754" y1="15.0531" x2="33.1754" y2="32.0075" gradientUnits="userSpaceOnUse">
<stop stop-color="#CACACA"/>
<stop offset="1" stop-color="#FAF6EE"/>
</linearGradient>
<linearGradient id="paint5_linear_4478_340" x1="46.3792" y1="15.0532" x2="46.3792" y2="32.0076" gradientUnits="userSpaceOnUse">
<stop stop-color="#CACACA"/>
<stop offset="1" stop-color="#FAF6EE"/>
</linearGradient>
<linearGradient id="paint6_linear_4478_340" x1="46.3792" y1="28.0654" x2="46.3792" y2="42.3553" gradientUnits="userSpaceOnUse">
<stop stop-color="#CACACA"/>
<stop offset="1" stop-color="#FAF6EE"/>
</linearGradient>
<linearGradient id="paint7_linear_4478_340" x1="33.1751" y1="28.0654" x2="33.1751" y2="42.3553" gradientUnits="userSpaceOnUse">
<stop stop-color="#CACACA"/>
<stop offset="1" stop-color="#FAF6EE"/>
</linearGradient>
<linearGradient id="paint8_linear_4478_340" x1="39.7762" y1="26.7878" x2="39.7762" y2="15.1854" gradientUnits="userSpaceOnUse">
<stop stop-color="#CACACA"/>
<stop offset="1" stop-color="#FAF6EE"/>
</linearGradient>
<linearGradient id="paint9_linear_4478_340" x1="39.7762" y1="36.2986" x2="39.7762" y2="24.675" gradientUnits="userSpaceOnUse">
<stop stop-color="#CACACA"/>
<stop offset="1" stop-color="#FAF6EE"/>
</linearGradient>
</defs>
</svg>
