<svg width="50" height="50" viewBox="0 0 50 50" fill="none" xmlns="http://www.w3.org/2000/svg">
<path d="M0 15C0 6.71573 6.71573 0 15 0H35C43.2843 0 50 6.71573 50 15V35C50 43.2843 43.2843 50 35 50H15C6.71573 50 0 43.2843 0 35V15Z" fill="#2B2E3A"/>
<path fill-rule="evenodd" clip-rule="evenodd" d="M16.3333 15C13.9401 15 12 16.9188 12 19.2857V30.7142C12 33.0812 13.9401 35 16.3333 35H33.6667C36.0599 35 38 33.0812 38 30.7142V19.2857C38 16.9188 36.0599 15 33.6667 15H16.3333ZM19.3121 20.2739C18.7515 19.8426 17.9334 19.93 17.4849 20.4691C17.0364 21.0082 17.1273 21.7948 17.6879 22.2261L25 27.8507L32.3121 22.2261C32.8728 21.7948 32.9637 21.0082 32.5152 20.4691C32.0667 19.93 31.2486 19.8426 30.6879 20.2739L25 24.6493L19.3121 20.2739Z" fill="white"/>
</svg>
