<svg width="20" height="20" viewBox="0 0 20 20" fill="none" xmlns="http://www.w3.org/2000/svg">
<path d="M11.6288 18.4718L11.0867 19.3877C10.6035 20.204 9.3965 20.204 8.9133 19.3877L8.3712 18.4718C7.95073 17.7614 7.74049 17.4063 7.40279 17.2098C7.06509 17.0134 6.63992 17.0061 5.78958 16.9915C4.53422 16.9698 3.74689 16.8929 3.08658 16.6194C1.86144 16.1119 0.88807 15.1386 0.3806 13.9134C-2.98023e-08 12.9946 0 11.8297 0 9.5V8.5C0 5.22657 -5.96046e-08 3.58985 0.7368 2.38751C1.14908 1.71473 1.71473 1.14908 2.38751 0.7368C3.58985 -5.96046e-08 5.22657 0 8.5 0H11.5C14.7734 0 16.4101 -5.96046e-08 17.6125 0.7368C18.2853 1.14908 18.8509 1.71473 19.2632 2.38751C20 3.58985 20 5.22657 20 8.5V9.5C20 11.8297 20 12.9946 19.6194 13.9134C19.1119 15.1386 18.1386 16.1119 16.9134 16.6194C16.2531 16.8929 15.4658 16.9698 14.2104 16.9915C13.36 17.0061 12.9349 17.0134 12.5972 17.2098C12.2595 17.4062 12.0492 17.7614 11.6288 18.4718Z" fill="white"/>
<path d="M5.24879 7C5.24879 6.58579 5.58458 6.25 5.99879 6.25H13.9988C14.413 6.25 14.7488 6.58579 14.7488 7C14.7488 7.41421 14.413 7.75 13.9988 7.75H5.99879C5.58458 7.75 5.24879 7.41421 5.24879 7Z" fill="#2B2E3A"/>
<path d="M5.24879 10.5C5.24879 10.0858 5.58458 9.75 5.99879 9.75H11.4988C11.913 9.75 12.2488 10.0858 12.2488 10.5C12.2488 10.9142 11.913 11.25 11.4988 11.25H5.99879C5.58458 11.25 5.24879 10.9142 5.24879 10.5Z" fill="#2B2E3A"/>
</svg>
