<svg width="60" height="60" viewBox="0 0 60 60" fill="none" xmlns="http://www.w3.org/2000/svg">
<circle cx="30" cy="30" r="30" fill="#2B2E3A"/>
<path fill-rule="evenodd" clip-rule="evenodd" d="M38.7734 26.0999C40.3832 24.4838 40.3148 22.3615 39.1128 21.0618C38.5266 20.4281 37.6924 20.0233 36.7475 20.001C35.7992 19.9786 34.8166 20.3413 33.9099 21.0998C33.8867 21.1192 33.8644 21.1397 33.8431 21.1611L20.8745 34.1815C20.3144 34.7437 20 35.505 20 36.2985V37.992C20 39.0935 20.892 39.9998 22.0038 39.9998H23.6826C24.4803 39.9998 25.2452 39.6821 25.8081 39.1169L38.7734 26.0999ZM35.207 23.7929C34.8165 23.4024 34.1833 23.4024 33.7928 23.7929C33.4023 24.1834 33.4023 24.8166 33.7928 25.2071L34.7928 26.2071C35.1833 26.5976 35.8165 26.5976 36.207 26.2071C36.5975 25.8166 36.5975 25.1834 36.207 24.7929L35.207 23.7929Z" fill="white"/>
</svg>
