<svg width="70" height="70" viewBox="0 0 70 70" fill="none" xmlns="http://www.w3.org/2000/svg">
<circle cx="35" cy="35" r="35" fill="white"/>
<path fill-rule="evenodd" clip-rule="evenodd" d="M48.1601 29.1498C50.5748 26.7256 50.4722 23.5422 48.6692 21.5927C47.7899 20.6421 46.5387 20.0349 45.1213 20.0015C43.6987 19.9679 42.2248 20.5119 40.8648 21.6498C40.83 21.6789 40.7966 21.7095 40.7646 21.7416L21.3117 41.2722C20.4716 42.1155 20 43.2574 20 44.4478V46.988C20 48.6403 21.3379 49.9997 23.0057 49.9997H25.5239C26.7205 49.9997 27.8678 49.5232 28.7122 48.6754L48.1601 29.1498ZM42.8104 25.6894C42.2247 25.1036 41.2749 25.1036 40.6892 25.6894C40.1034 26.2752 40.1034 27.2249 40.6892 27.8107L42.1891 29.3107C42.7749 29.8964 43.7247 29.8964 44.3104 29.3107C44.8962 28.7249 44.8962 27.7751 44.3104 27.1894L42.8104 25.6894Z" fill="#2B2E3A"/>
</svg>
