<svg width="50" height="50" viewBox="0 0 50 50" fill="none" xmlns="http://www.w3.org/2000/svg">
<path d="M0 15C0 6.71573 6.71573 0 15 0H35C43.2843 0 50 6.71573 50 15V35C50 43.2843 43.2843 50 35 50H15C6.71573 50 0 43.2843 0 35V15Z" fill="#2B2E3A"/>
<path d="M28.9513 28.118L28.4452 28.6211C28.4452 28.6211 27.2423 29.8172 23.959 26.5524C20.6757 23.2878 21.8785 22.0917 21.8785 22.0917L22.1972 21.7749C22.9823 20.9943 23.0563 19.741 22.3713 18.8261L20.9703 16.9545C20.1225 15.8221 18.4844 15.6725 17.5127 16.6387L15.7687 18.3728C15.2869 18.8519 14.9641 19.4729 15.0032 20.1618C15.1034 21.9242 15.9008 25.7163 20.3504 30.1406C25.069 34.8324 29.4964 35.0189 31.307 34.8501C31.8796 34.7968 32.3776 34.5051 32.779 34.106L34.3574 32.5366C35.4229 31.4772 35.1224 29.661 33.7592 28.92L31.6364 27.766C30.7413 27.2794 29.6509 27.4223 28.9513 28.118Z" fill="white"/>
</svg>
