<svg width="25" height="25" viewBox="0 0 25 25" fill="none" xmlns="http://www.w3.org/2000/svg">
<path d="M23.1915 5.71745L19.2825 1.80847L11.5176 8.75407L11.8332 13.1668L16.2459 13.4824L23.1915 5.71745Z" fill="white"/>
<path d="M24.0109 7.35632L17.6437 0.989086C17.4174 0.762817 17.4174 0.395922 17.6437 0.169702C17.87 -0.0565673 18.2368 -0.0565673 18.4631 0.169702L24.8303 6.53693C25.0566 6.7632 25.0566 7.13005 24.8303 7.35632C24.604 7.58259 24.2372 7.58259 24.0109 7.35632Z" fill="white"/>
<path d="M9.18056 14.5084L0.573535 23.1154L0 25L1.88462 24.4264L10.4915 15.8195L9.18056 14.5084Z" fill="white"/>
<path d="M16.2459 13.4824L11.5176 8.75407C8.60102 7.64474 5.17724 8.26452 2.82783 10.6139L14.386 22.1722C16.7355 19.8228 17.3553 16.3989 16.2459 13.4824Z" fill="white"/>
</svg>
