<svg width="20" height="20" viewBox="0 0 20 20" fill="none" xmlns="http://www.w3.org/2000/svg">
<path d="M18.5532 4.57396L15.426 1.44678L9.21406 7.00325L9.46659 10.5334L12.9967 10.7859L18.5532 4.57396Z" fill="white"/>
<path d="M19.2087 5.88505L14.1149 0.791269C13.9339 0.610253 13.9339 0.316738 14.1149 0.135762C14.296 -0.0452539 14.5894 -0.0452539 14.7705 0.135762L19.8642 5.22955C20.0453 5.41056 20.0453 5.70404 19.8642 5.88505C19.6832 6.06607 19.3897 6.06607 19.2087 5.88505Z" fill="white"/>
<path d="M7.34445 11.6067L0.458828 18.4923L0 20L1.50769 19.5411L8.39323 12.6556L7.34445 11.6067Z" fill="white"/>
<path d="M12.9967 10.7859L9.21406 7.00325C6.88082 6.11579 4.14179 6.61161 2.26226 8.49114L11.5088 17.7377C13.3884 15.8582 13.8842 13.1191 12.9967 10.7859Z" fill="white"/>
</svg>
