<svg width="75" height="75" viewBox="0 0 75 75" fill="none" xmlns="http://www.w3.org/2000/svg">
<rect width="75" height="75" rx="37.5" fill="#2B2E3A"/>
<path d="M27.7778 37.8889C27.7778 40.0367 26.0367 41.7778 23.8889 41.7778C21.7411 41.7778 20 40.0367 20 37.8889C20 35.7411 21.7411 34 23.8889 34C26.0367 34 27.7778 35.7411 27.7778 37.8889Z" fill="white"/>
<path d="M55 37.8889C55 40.0367 53.2589 41.7778 51.1111 41.7778C48.9633 41.7778 47.2222 40.0367 47.2222 37.8889C47.2222 35.7411 48.9633 34 51.1111 34C53.2589 34 55 35.7411 55 37.8889Z" fill="white"/>
<path d="M41.3889 37.8889C41.3889 40.0367 39.6478 41.7778 37.5 41.7778C35.3522 41.7778 33.6111 40.0367 33.6111 37.8889C33.6111 35.7411 35.3522 34 37.5 34C39.6478 34 41.3889 35.7411 41.3889 37.8889Z" fill="white"/>
</svg>
