<svg width="15" height="15" viewBox="0 0 15 15" fill="none" xmlns="http://www.w3.org/2000/svg">
<path fill-rule="evenodd" clip-rule="evenodd" d="M2.79077 3.31393C2.79077 1.4837 4.27447 0 6.10471 0C7.93494 0 9.41864 1.4837 9.41864 3.31393C9.41864 5.14416 7.93494 6.62786 6.10471 6.62786C4.27447 6.62786 2.79077 5.14416 2.79077 3.31393Z" fill="#2B2E3A"/>
<path fill-rule="evenodd" clip-rule="evenodd" d="M1.90156 8.6611C3.00351 8.04126 4.49061 7.67437 6.10471 7.67437C7.71881 7.67437 9.20591 8.04126 10.3079 8.6611C11.3934 9.27172 12.2093 10.1972 12.2093 11.3371C12.2093 11.3607 12.2093 11.3844 12.2094 11.4083C12.2102 12.2189 12.2111 13.2362 11.3188 13.9628C10.8796 14.3205 10.2653 14.5748 9.43524 14.7428C8.60288 14.9113 7.51803 14.9999 6.10471 14.9999C4.69138 14.9999 3.60653 14.9113 2.77418 14.7428C1.94414 14.5748 1.32977 14.3205 0.890608 13.9628C-0.00173008 13.2362 -0.000740844 12.2189 4.7356e-05 11.4083C7.059e-05 11.3844 9.36644e-05 11.3607 9.36644e-05 11.3371C9.36644e-05 10.1972 0.816006 9.27172 1.90156 8.6611Z" fill="#2B2E3A"/>
<path d="M9.76748 5.89512C9.76748 6.55677 10.0565 7.05484 10.4028 7.43234C10.731 7.79025 11.1539 8.08055 11.4304 8.29159L11.4332 8.29378C11.5368 8.37274 11.6703 8.47456 11.8112 8.5542C11.9534 8.63471 12.1504 8.72087 12.3837 8.72087C12.617 8.72087 12.8141 8.63471 12.9563 8.5542C13.0971 8.47456 13.2307 8.37274 13.3342 8.29378L13.3371 8.29159C13.6136 8.08055 14.0364 7.79025 14.3647 7.43234C14.711 7.05484 15 6.55677 15 5.89512C15 5.19714 14.5917 4.58741 13.9951 4.32342C13.4924 4.10092 12.9085 4.14309 12.3837 4.48523C11.859 4.14309 11.2751 4.10092 10.7723 4.32342C10.1758 4.58741 9.76748 5.19714 9.76748 5.89512Z" fill="#2B2E3A"/>
</svg>
