<svg width="50" height="50" viewBox="0 0 50 50" fill="none" xmlns="http://www.w3.org/2000/svg">
<circle cx="25" cy="25" r="23.5" stroke="black" stroke-width="3"/>
<mask id="path-2-inside-1_4101_3969" fill="white">
<path fill-rule="evenodd" clip-rule="evenodd" d="M25 16.4286C23.5799 16.4286 22.4286 17.5799 22.4286 19C22.4286 19.9468 21.6611 20.7143 20.7143 20.7143C19.7675 20.7143 19 19.9468 19 19C19 15.6863 21.6864 13 25 13C28.3136 13 31 15.6863 31 19C31 21.202 29.8128 23.1247 28.0522 24.1665L28.052 24.1667C27.6022 24.4327 27.231 24.7232 26.9892 25.0082C26.7544 25.2848 26.7143 25.4653 26.7143 25.5714V28.4286C26.7143 29.3753 25.9468 30.1429 25 30.1429C24.0532 30.1429 23.2857 29.3753 23.2857 28.4286V25.5714C23.2857 24.4151 23.7919 23.4769 24.3751 22.7897C24.9511 22.111 25.6694 21.5926 26.3062 21.2159L26.3064 21.2157C27.0673 20.7654 27.5714 19.9406 27.5714 19C27.5714 17.5799 26.4201 16.4286 25 16.4286Z"/>
<path d="M25 37.5714C26.2624 37.5714 27.2857 36.5481 27.2857 35.2857C27.2857 34.0233 26.2624 33 25 33C23.7376 33 22.7143 34.0233 22.7143 35.2857C22.7143 36.5481 23.7376 37.5714 25 37.5714Z"/>
</mask>
<path fill-rule="evenodd" clip-rule="evenodd" d="M25 16.4286C23.5799 16.4286 22.4286 17.5799 22.4286 19C22.4286 19.9468 21.6611 20.7143 20.7143 20.7143C19.7675 20.7143 19 19.9468 19 19C19 15.6863 21.6864 13 25 13C28.3136 13 31 15.6863 31 19C31 21.202 29.8128 23.1247 28.0522 24.1665L28.052 24.1667C27.6022 24.4327 27.231 24.7232 26.9892 25.0082C26.7544 25.2848 26.7143 25.4653 26.7143 25.5714V28.4286C26.7143 29.3753 25.9468 30.1429 25 30.1429C24.0532 30.1429 23.2857 29.3753 23.2857 28.4286V25.5714C23.2857 24.4151 23.7919 23.4769 24.3751 22.7897C24.9511 22.111 25.6694 21.5926 26.3062 21.2159L26.3064 21.2157C27.0673 20.7654 27.5714 19.9406 27.5714 19C27.5714 17.5799 26.4201 16.4286 25 16.4286Z" fill="black"/>
<path d="M25 37.5714C26.2624 37.5714 27.2857 36.5481 27.2857 35.2857C27.2857 34.0233 26.2624 33 25 33C23.7376 33 22.7143 34.0233 22.7143 35.2857C22.7143 36.5481 23.7376 37.5714 25 37.5714Z" fill="black"/>
<path d="M28.0522 24.1665L45.0098 52.8641L45.0186 52.8589L45.0274 52.8537L28.0522 24.1665ZM28.052 24.1667L11.0943 -4.53086L11.088 -4.52714L11.0817 -4.52342L28.052 24.1667ZM26.9892 25.0082L52.4042 46.5764L52.4042 46.5763L26.9892 25.0082ZM24.3751 22.7897L49.7901 44.3579L49.7901 44.3579L24.3751 22.7897ZM26.3062 21.2159L43.2773 49.9055L43.2835 49.9018L43.2898 49.898L26.3062 21.2159ZM26.3064 21.2157L9.32803 -7.46956L9.3228 -7.46646L26.3064 21.2157ZM55.7619 19C55.7619 35.9896 41.9891 49.7619 25 49.7619V-16.9048C5.17068 -16.9048 -10.9048 -0.829901 -10.9048 19H55.7619ZM20.7143 54.0476C40.0706 54.0476 55.7619 38.3563 55.7619 19H-10.9048C-10.9048 1.53728 3.25157 -12.619 20.7143 -12.619V54.0476ZM-14.3333 19C-14.3333 38.3563 1.35802 54.0476 20.7143 54.0476V-12.619C38.177 -12.619 52.3333 1.53728 52.3333 19H-14.3333ZM25 -20.3333C3.27727 -20.3333 -14.3333 -2.72359 -14.3333 19H52.3333C52.3333 34.0961 40.0955 46.3333 25 46.3333V-20.3333ZM64.3333 19C64.3333 -2.72358 46.7227 -20.3333 25 -20.3333V46.3333C9.9045 46.3333 -2.33333 34.0961 -2.33333 19H64.3333ZM45.0274 52.8537C56.4923 46.0695 64.3333 33.4798 64.3333 19H-2.33333C-2.33333 8.92411 3.13323 0.179972 11.077 -4.52065L45.0274 52.8537ZM45.0096 52.8642L45.0098 52.8641L11.0946 -4.53101L11.0943 -4.53086L45.0096 52.8642ZM52.4042 46.5763C50.7698 48.5022 49.2087 49.8658 48.0958 50.7443C46.9373 51.6589 45.8816 52.3484 45.0222 52.8568L11.0817 -4.52342C8.81781 -3.18431 5.06852 -0.67767 1.57412 3.43999L52.4042 46.5763ZM60.0476 25.5714C60.0476 35.5205 55.689 42.7057 52.4042 46.5764L1.57414 3.43997C-2.18018 7.86389 -6.61905 15.4101 -6.61905 25.5714H60.0476ZM60.0476 28.4286V25.5714H-6.61905V28.4286H60.0476ZM25 63.4762C44.3563 63.4762 60.0476 47.7848 60.0476 28.4286H-6.61905C-6.61905 10.9659 7.53728 -3.19048 25 -3.19048V63.4762ZM-10.0476 28.4286C-10.0476 47.7848 5.64374 63.4762 25 63.4762V-3.19048C42.4627 -3.19048 56.619 10.9659 56.619 28.4286H-10.0476ZM-10.0476 25.5714V28.4286H56.619V25.5714H-10.0476ZM-1.03999 1.22153C-4.98384 5.8688 -10.0476 14.1744 -10.0476 25.5714H56.619C56.619 34.6559 52.5676 41.085 49.7901 44.3579L-1.03999 1.22153ZM9.33513 -7.47376C6.87584 -6.01899 2.784 -3.28449 -1.03999 1.22154L49.7901 44.3579C47.1182 47.5064 44.4629 49.2041 43.2773 49.9055L9.33513 -7.47376ZM9.3228 -7.46646L9.32255 -7.46631L43.2898 49.898L43.2901 49.8979L9.3228 -7.46646ZM-5.7619 19C-5.7619 7.71494 0.341082 -2.15031 9.32803 -7.46956L43.2849 49.901C53.7936 43.681 60.9048 32.1662 60.9048 19H-5.7619ZM25 49.7619C8.01087 49.7619 -5.7619 35.9896 -5.7619 19H60.9048C60.9048 -0.82989 44.8293 -16.9048 25 -16.9048V49.7619ZM-6.04762 35.2857C-6.04762 18.1386 7.8529 4.23809 25 4.23809V70.9048C44.6718 70.9048 60.619 54.9576 60.619 35.2857H-6.04762ZM25 4.23809C42.1471 4.23809 56.0476 18.1386 56.0476 35.2857H-10.619C-10.619 54.9576 5.32816 70.9048 25 70.9048V4.23809ZM56.0476 35.2857C56.0476 52.4328 42.1471 66.3333 25 66.3333V-0.333334C5.32812 -0.333334 -10.619 15.6139 -10.619 35.2857H56.0476ZM25 66.3333C7.85286 66.3333 -6.04762 52.4328 -6.04762 35.2857H60.619C60.619 15.6139 44.6719 -0.333334 25 -0.333334V66.3333Z" fill="black" mask="url(#path-2-inside-1_4101_3969)"/>
</svg>
