<svg width="70" height="70" viewBox="0 0 70 70" fill="none" xmlns="http://www.w3.org/2000/svg">
<circle cx="35" cy="35" r="35" fill="white"/>
<path fill-rule="evenodd" clip-rule="evenodd" d="M23.3333 18C24.2538 18 25 18.7462 25 19.6667V23.4811C26.2498 22.3633 27.6866 21.4554 29.2564 20.8047C32.3078 19.5399 35.6913 19.3177 38.8818 20.1725C42.0724 21.0273 44.8916 22.9113 46.9019 25.5322C48.9123 28.1531 50.0013 31.3642 50 34.6673C49.9996 35.5878 49.2532 36.3337 48.3327 36.3333C47.4122 36.333 46.6663 35.5865 46.6667 34.666C46.6677 32.097 45.8207 29.5994 44.2571 27.5609C42.6935 25.5225 40.5008 24.0571 38.0192 23.3923C35.5377 22.7274 32.9061 22.9002 30.5328 23.884C29.144 24.4596 27.8891 25.2941 26.8297 26.3333H31.6667C32.5871 26.3333 33.3333 27.0795 33.3333 28C33.3333 28.9205 32.5871 29.6667 31.6667 29.6667H23.4789C23.4586 29.667 23.4383 29.667 23.418 29.6667H23.3333C22.4129 29.6667 21.6667 28.9205 21.6667 28V19.6667C21.6667 18.7462 22.4129 18 23.3333 18ZM21.6673 33C22.5878 33.0004 23.3337 33.7469 23.3333 34.6673C23.3323 37.2364 24.1793 39.734 25.7429 41.7724C27.3065 43.8109 29.4992 45.2763 31.9808 45.9411C34.4623 46.606 37.0939 46.4331 39.4672 45.4494C40.856 44.8737 42.1109 44.0393 43.1703 43H38.3333C37.4129 43 36.6667 42.2538 36.6667 41.3334C36.6667 40.4129 37.4129 39.6667 38.3333 39.6667H46.5211C46.5414 39.6663 46.5617 39.6663 46.582 39.6667H46.6667C47.5871 39.6667 48.3333 40.4129 48.3333 41.3334V49.6667C48.3333 50.5872 47.5871 51.3334 46.6667 51.3334C45.7462 51.3334 45 50.5872 45 49.6667V45.8522C43.7502 46.9701 42.3134 47.878 40.7436 48.5287C37.6922 49.7935 34.3087 50.0157 31.1181 49.1609C27.9276 48.3061 25.1084 46.422 23.0981 43.8012C21.0877 41.1803 19.9987 37.9691 20 34.666C20.0004 33.7456 20.7468 32.9997 21.6673 33Z" fill="#2B2E3A"/>
</svg>
