<svg width="60" height="60" viewBox="0 0 60 60" fill="none" xmlns="http://www.w3.org/2000/svg">
<circle cx="30" cy="30" r="30" fill="#2B2E3A"/>
<path fill-rule="evenodd" clip-rule="evenodd" d="M20.7778 16C21.5448 16 22.1667 16.6218 22.1667 17.3889V20.5676C23.2082 19.6361 24.4055 18.8795 25.7137 18.3372C28.2565 17.2832 31.0761 17.0981 33.7349 17.8104C36.3937 18.5227 38.743 20.0928 40.4183 22.2768C42.0936 24.4609 43.0011 27.1369 43 29.8894C42.9997 30.6565 42.3776 31.2781 41.6106 31.2778C40.8435 31.2775 40.2219 30.6554 40.2222 29.8884C40.2231 27.7475 39.5172 25.6662 38.2142 23.9674C36.9112 22.2687 35.084 21.0476 33.016 20.4935C30.9481 19.9395 28.755 20.0835 26.7773 20.9033C25.62 21.383 24.5742 22.0784 23.6914 22.9444H27.7222C28.4893 22.9444 29.1111 23.5663 29.1111 24.3333C29.1111 25.1004 28.4893 25.7222 27.7222 25.7222H20.8991C20.8822 25.7225 20.8653 25.7225 20.8483 25.7222H20.7778C20.0107 25.7222 19.3889 25.1004 19.3889 24.3333V17.3889C19.3889 16.6218 20.0107 16 20.7778 16ZM19.3894 28.5C20.1565 28.5003 20.7781 29.1224 20.7778 29.8894C20.7769 32.0303 21.4828 34.1116 22.7858 35.8104C24.0888 37.5091 25.916 38.7302 27.984 39.2842C30.0519 39.8383 32.245 39.6943 34.2227 38.8745C35.38 38.3948 36.4258 37.6994 37.3086 36.8333H33.2778C32.5107 36.8333 31.8889 36.2115 31.8889 35.4445C31.8889 34.6774 32.5107 34.0556 33.2778 34.0556H40.1009C40.1178 34.0553 40.1347 34.0553 40.1517 34.0556H40.2222C40.9893 34.0556 41.6111 34.6774 41.6111 35.4445V42.3889C41.6111 43.156 40.9893 43.7778 40.2222 43.7778C39.4552 43.7778 38.8333 43.156 38.8333 42.3889V39.2102C37.7918 40.1417 36.5945 40.8983 35.2863 41.4406C32.7435 42.4945 29.9239 42.6797 27.2651 41.9674C24.6063 41.2551 22.257 39.685 20.5817 37.501C18.9064 35.3169 17.9989 32.6409 18 29.8884C18.0003 29.1213 18.6224 28.4997 19.3894 28.5Z" fill="white"/>
</svg>
