<svg width="70" height="70" viewBox="0 0 70 70" fill="none" xmlns="http://www.w3.org/2000/svg">
<circle cx="35" cy="35" r="35" fill="white"/>
<path d="M31.4986 24.0022C31.6045 24.0014 31.6045 24.0014 31.7125 24.0006C31.9445 23.9994 32.1763 24.0002 32.4083 24.0012C32.5712 24.001 32.7342 24.0007 32.8972 24.0003C33.2387 23.9999 33.5802 24.0005 33.9217 24.0019C34.3555 24.0035 34.7892 24.0026 35.2229 24.0009C35.5598 23.9998 35.8966 24.0002 36.2335 24.0009C36.3932 24.0011 36.5529 24.0009 36.7125 24.0002C38.9041 23.9929 40.8709 24.476 42.5329 25.9771C42.5933 26.0315 42.6537 26.086 42.716 26.1422C44.0725 27.4312 44.9383 29.2672 44.9972 31.1447C44.9993 31.3255 45.0002 31.5063 45 31.6871C44.9999 31.7344 44.9999 31.7816 44.9999 31.8303C44.9932 33.9413 44.1789 35.7798 42.7258 37.2985C41.1307 38.8377 39.1185 39.426 36.9496 39.4117C36.8285 39.4115 36.7075 39.4113 36.5864 39.4111C36.2707 39.4106 35.955 39.4092 35.6392 39.4076C35.3159 39.4061 34.9926 39.4055 34.6692 39.4047C34.037 39.4032 33.4047 39.4007 32.7724 39.3977C32.7724 39.8951 32.7724 40.3924 32.7724 40.9049C32.9615 40.9037 33.1506 40.9026 33.3454 40.9014C33.9704 40.8979 34.5954 40.8955 35.2205 40.8937C35.5994 40.8926 35.9783 40.8911 36.3572 40.8886C36.723 40.8863 37.0887 40.885 37.4545 40.8844C37.594 40.884 37.7334 40.8833 37.8729 40.8821C38.0684 40.8805 38.2639 40.8803 38.4594 40.8804C38.5169 40.8796 38.5744 40.8789 38.6337 40.8781C39.039 40.8803 39.3393 40.9584 39.6499 41.2385C39.6835 41.2794 39.7172 41.3203 39.7519 41.3624C39.7863 41.4029 39.8207 41.4434 39.8562 41.4852C40.1436 41.9094 40.1438 42.3463 40.0928 42.8426C39.9694 43.2866 39.685 43.5982 39.3034 43.8474C38.9856 44.009 38.6859 44.0104 38.3372 44.0072C38.2769 44.0072 38.2167 44.0072 38.1546 44.0073C37.9562 44.0072 37.7578 44.006 37.5593 44.0049C37.4215 44.0047 37.2836 44.0044 37.1457 44.0043C36.7834 44.0038 36.4211 44.0023 36.0587 44.0008C35.6888 43.9993 35.3188 43.9986 34.9489 43.9979C34.2234 43.9964 33.4979 43.9939 32.7724 43.9909C32.7732 44.0524 32.7732 44.0524 32.7739 44.1151C32.7787 44.5436 32.7819 44.972 32.7843 45.4005C32.7853 45.5602 32.7868 45.7199 32.7887 45.8796C32.7913 46.1097 32.7925 46.3399 32.7935 46.5701C32.7946 46.6409 32.7957 46.7117 32.7968 46.7847C32.797 47.3047 32.7083 47.6824 32.4405 48.1355C32.0785 48.4785 31.6881 48.6017 31.1935 48.62C30.7889 48.603 30.4465 48.5425 30.117 48.297C29.7735 47.902 29.6051 47.5445 29.6065 47.0218C29.6065 46.9543 29.6065 46.8868 29.6065 46.8172C29.6069 46.7449 29.6072 46.6726 29.6076 46.5981C29.6077 46.5236 29.6078 46.4492 29.6079 46.3725C29.6083 46.1348 29.6092 45.8972 29.6101 45.6595C29.6105 45.4983 29.6108 45.3371 29.6111 45.1759C29.6119 44.7809 29.6131 44.3859 29.6146 43.9909C29.5729 43.9915 29.5312 43.9922 29.4882 43.9928C29.0516 43.9992 28.615 44.0035 28.1783 44.0067C28.0156 44.0081 27.8529 44.0101 27.6903 44.0126C27.4556 44.0161 27.2211 44.0177 26.9864 44.0189C26.8784 44.0212 26.8784 44.0212 26.7682 44.0234C26.2988 44.0236 25.929 43.9493 25.5238 43.7038C25.3691 43.5446 25.3691 43.5446 25.2726 43.3809C25.2227 43.2998 25.2227 43.2998 25.1717 43.2171C24.9796 42.8275 24.9599 42.3918 25.0571 41.9705C25.1973 41.5576 25.4043 41.2491 25.7713 41.0018C26.1344 40.8637 26.4681 40.8782 26.8532 40.8838C26.9718 40.8843 26.9718 40.8843 27.0927 40.8848C27.3443 40.886 27.5958 40.8887 27.8473 40.8914C28.0182 40.8925 28.1892 40.8935 28.3601 40.8944C28.7783 40.8967 29.1964 40.9004 29.6146 40.9049C29.6146 40.4075 29.6146 39.9102 29.6146 39.3977C29.3734 39.4011 29.1323 39.4044 28.8838 39.4078C28.6486 39.4101 28.4135 39.4118 28.1783 39.4135C28.0156 39.4149 27.8529 39.4169 27.6903 39.4194C27.4556 39.4229 27.2211 39.4245 26.9864 39.4258C26.8784 39.428 26.8784 39.428 26.7682 39.4303C26.2988 39.4304 25.929 39.3561 25.5238 39.1107C25.3691 38.9514 25.3691 38.9514 25.2726 38.7877C25.2227 38.7067 25.2227 38.7067 25.1717 38.624C24.9796 38.2343 24.9599 37.7986 25.0571 37.3773C25.1973 36.9644 25.4043 36.6559 25.7713 36.4086C26.1344 36.2706 26.4681 36.2851 26.8532 36.2907C26.9718 36.2911 26.9718 36.2911 27.0927 36.2916C27.3443 36.2928 27.5958 36.2955 27.8473 36.2982C28.0182 36.2993 28.1892 36.3003 28.3601 36.3012C28.7783 36.3035 29.1964 36.3071 29.6146 36.3117C29.6144 36.2553 29.6142 36.1988 29.614 36.1407C29.6093 34.7666 29.6057 33.3924 29.6035 32.0183C29.6024 31.3538 29.6009 30.6893 29.5984 30.0247C29.5962 29.4454 29.5948 28.8661 29.5944 28.2868C29.5941 27.9802 29.5934 27.6736 29.5919 27.3669C29.5904 27.078 29.59 26.7892 29.5903 26.5003C29.5902 26.3945 29.5898 26.2888 29.589 26.183C29.5841 25.5326 29.6116 25.0546 29.9466 24.4879C30.3903 24.0675 30.9096 23.9969 31.4986 24.0022ZM32.7724 27.1253C32.7724 30.1568 32.7724 33.1883 32.7724 36.3117C36.9271 36.6329 36.9271 36.6329 40.5772 35.0019C41.4714 34.0567 41.9359 32.8169 41.9041 31.5189C41.8055 30.1869 41.2895 29.102 40.3081 28.2019C38.2826 26.4892 35.0878 27.1253 32.7724 27.1253Z" fill="#2B2E3A"/>
</svg>
