<svg width="60" height="60" viewBox="0 0 60 60" fill="none" xmlns="http://www.w3.org/2000/svg">
<circle cx="30" cy="30" r="30" fill="#2B2E3A"/>
<path d="M27.874 21.0016C27.9534 21.0011 27.9534 21.0011 28.0344 21.0005C28.2084 20.9995 28.3823 21.0002 28.5562 21.0009C28.6784 21.0007 28.8007 21.0005 28.9229 21.0003C29.179 20.9999 29.4352 21.0004 29.6913 21.0014C30.0166 21.0026 30.3419 21.0019 30.6672 21.0006C30.9198 20.9999 31.1725 21.0001 31.4251 21.0007C31.5449 21.0008 31.6646 21.0006 31.7844 21.0001C33.4281 20.9947 34.9032 21.357 36.1497 22.4828C36.195 22.5237 36.2403 22.5645 36.287 22.6066C37.3044 23.5734 37.9537 24.9504 37.9979 26.3585C37.9995 26.4941 38.0002 26.6297 38 26.7653C38 26.8008 37.9999 26.8362 37.9999 26.8727C37.9949 28.456 37.3842 29.8349 36.2944 30.9739C35.0981 32.1283 33.5888 32.5695 31.9622 32.5588C31.8714 32.5586 31.7806 32.5585 31.6898 32.5583C31.453 32.5579 31.2162 32.5569 30.9794 32.5557C30.7369 32.5546 30.4944 32.5541 30.2519 32.5536C29.7777 32.5524 29.3035 32.5505 28.8293 32.5483C28.8293 32.9213 28.8293 33.2943 28.8293 33.6786C28.9711 33.6778 29.1129 33.677 29.259 33.6761C29.7278 33.6734 30.1966 33.6716 30.6654 33.6703C30.9496 33.6694 31.2337 33.6683 31.5179 33.6665C31.7922 33.6647 32.0666 33.6637 32.3409 33.6633C32.4455 33.663 32.5501 33.6624 32.6547 33.6616C32.8013 33.6604 32.9479 33.6602 33.0946 33.6603C33.1377 33.6597 33.1808 33.6592 33.2253 33.6586C33.5292 33.6602 33.7544 33.7188 33.9874 33.9289C34.0126 33.9595 34.0379 33.9902 34.0639 34.0218C34.0897 34.0522 34.1156 34.0826 34.1421 34.1139C34.3577 34.4321 34.3578 34.7597 34.3196 35.132C34.2271 35.4649 34.0138 35.6987 33.7275 35.8855C33.4892 36.0068 33.2645 36.0078 33.0029 36.0054C32.9577 36.0054 32.9125 36.0054 32.866 36.0054C32.7171 36.0054 32.5683 36.0045 32.4195 36.0037C32.3161 36.0035 32.2127 36.0033 32.1093 36.0032C31.8375 36.0028 31.5658 36.0018 31.294 36.0006C31.0166 35.9995 30.7391 35.999 30.4617 35.9984C29.9176 35.9973 29.3734 35.9954 28.8293 35.9932C28.8299 36.0393 28.8299 36.0393 28.8304 36.0863C28.834 36.4077 28.8364 36.729 28.8382 37.0504C28.839 37.1701 28.8401 37.2899 28.8415 37.4097C28.8435 37.5823 28.8444 37.7549 28.8451 37.9276C28.8459 37.9807 28.8468 38.0338 28.8476 38.0885C28.8477 38.4785 28.7812 38.7618 28.5804 39.1016C28.3089 39.3589 28.0161 39.4512 27.6451 39.465C27.3417 39.4522 27.0849 39.4069 26.8378 39.2227C26.5801 38.9265 26.4538 38.6584 26.4549 38.2663C26.4549 38.2157 26.4549 38.1651 26.4549 38.1129C26.4551 38.0587 26.4554 38.0045 26.4557 37.9486C26.4558 37.8927 26.4559 37.8369 26.4559 37.7793C26.4562 37.6011 26.4569 37.4229 26.4576 37.2446C26.4579 37.1237 26.4581 37.0028 26.4583 36.8819C26.4589 36.5857 26.4598 36.2894 26.461 35.9932C26.4297 35.9937 26.3984 35.9941 26.3661 35.9946C26.0387 35.9994 25.7112 36.0026 25.3837 36.005C25.2617 36.0061 25.1397 36.0075 25.0177 36.0094C24.8417 36.012 24.6658 36.0133 24.4898 36.0142C24.4088 36.0159 24.4088 36.0159 24.3261 36.0176C23.9741 36.0177 23.6967 35.962 23.3929 35.7779C23.2768 35.6584 23.2768 35.6584 23.2045 35.5357C23.167 35.4749 23.167 35.4749 23.1288 35.4129C22.9847 35.1206 22.97 34.7938 23.0428 34.4778C23.148 34.1682 23.3032 33.9368 23.5785 33.7513C23.8508 33.6478 24.1011 33.6587 24.3899 33.6629C24.4788 33.6632 24.4788 33.6632 24.5696 33.6636C24.7582 33.6645 24.9468 33.6665 25.1355 33.6686C25.2637 33.6694 25.3919 33.6701 25.5201 33.6708C25.8337 33.6725 26.1473 33.6753 26.461 33.6786C26.461 33.3056 26.461 32.9326 26.461 32.5483C26.2801 32.5508 26.0992 32.5533 25.9128 32.5559C25.7365 32.5575 25.5601 32.5589 25.3837 32.5601C25.2617 32.5612 25.1397 32.5627 25.0177 32.5645C24.8417 32.5672 24.6658 32.5684 24.4898 32.5693C24.4088 32.571 24.4088 32.571 24.3261 32.5727C23.9741 32.5728 23.6967 32.5171 23.3929 32.333C23.2768 32.2136 23.2768 32.2136 23.2045 32.0908C23.167 32.03 23.167 32.03 23.1288 31.968C22.9847 31.6758 22.97 31.349 23.0428 31.033C23.148 30.7233 23.3032 30.492 23.5785 30.3065C23.8508 30.2029 24.1011 30.2138 24.3899 30.218C24.4788 30.2183 24.4788 30.2183 24.5696 30.2187C24.7582 30.2196 24.9468 30.2216 25.1355 30.2237C25.2637 30.2245 25.3919 30.2252 25.5201 30.2259C25.8337 30.2277 26.1473 30.2304 26.461 30.2338C26.4608 30.1914 26.4607 30.1491 26.4605 30.1055C26.457 29.0749 26.4543 28.0443 26.4526 27.0137C26.4518 26.5153 26.4506 26.0169 26.4488 25.5186C26.4472 25.0841 26.4461 24.6496 26.4458 24.2151C26.4456 23.9851 26.4451 23.7552 26.4439 23.5252C26.4428 23.3085 26.4425 23.0919 26.4427 22.8752C26.4427 22.7959 26.4423 22.7166 26.4417 22.6372C26.4381 22.1495 26.4587 21.791 26.7099 21.3659C27.0427 21.0506 27.4322 20.9977 27.874 21.0016ZM28.8293 23.344C28.8293 25.6176 28.8293 27.8912 28.8293 30.2338C31.9453 30.4747 31.9453 30.4747 34.6829 29.2514C35.3535 28.5425 35.7019 27.6127 35.6781 26.6392C35.6041 25.6402 35.2171 24.8265 34.4811 24.1514C32.9619 22.8669 30.5659 23.344 28.8293 23.344Z" fill="white"/>
</svg>
