<svg width="130" height="36" viewBox="0 0 130 36" fill="none" xmlns="http://www.w3.org/2000/svg">
<path d="M103.065 10.7132L107.873 7.11987H91.7715V28.6468H107.873V25.0505H96.3705V19.5561H106.201V15.9628H96.3705V10.7132H103.065Z" fill="white"/>
<path d="M79.6086 15.5032H74.0307V10.7132H82.9542L87.7652 7.11987H69.4316V28.6468H79.0147C84.3838 28.6468 87.4846 26.1786 87.4846 21.881C87.4846 17.7595 84.6972 15.5032 79.6086 15.5032ZM78.8416 25.0505H74.0307V19.0965H78.8416C81.7694 19.0965 83.1273 20.0844 83.1273 22.0929C83.1273 24.1015 81.6649 25.0505 78.8416 25.0505Z" fill="white"/>
<path d="M120.902 7.11987H112.154V28.6468H116.753V22.5495H120.938C126.513 22.5495 129.998 19.5919 129.998 14.8347C129.998 10.0775 126.513 7.11987 120.902 7.11987ZM120.797 18.9562H116.721V10.7132H120.797C123.761 10.7132 125.364 12.1935 125.364 14.8347C125.364 17.476 123.761 18.9562 120.797 18.9562Z" fill="white"/>
<path d="M61.5515 23.9841C60.3338 24.6556 58.9729 25.0078 57.5791 25.0078C53.4308 25.0078 50.4344 22.0114 50.4344 17.8898C50.4344 13.7683 53.4308 10.7719 57.5791 10.7719C59.0773 10.739 60.5427 11.2315 61.7604 12.1119L65.0731 9.64673L64.8642 9.43484C62.9482 7.70683 60.3666 6.82642 57.4389 6.82642C54.2694 6.82642 51.3745 7.91873 49.2853 9.89146C47.1932 11.9358 46.0084 14.789 46.077 17.7495C46.0412 20.743 47.1932 23.6319 49.2853 25.7449C51.4789 27.8251 54.4067 28.989 57.406 28.9174C60.7158 28.9174 63.6078 27.7535 65.5596 25.6405L62.599 23.42L61.5515 23.9841Z" fill="white"/>
<path d="M31.6785 6.97363C32.5141 8.06594 33.2125 9.26271 33.8034 10.5311L17.7022 22.5436L10.9395 18.2459V13.1037L17.6664 17.3655L31.6785 6.97363Z" fill="white"/>
<path d="M4.07677 17.8977C4.07677 17.65 4.07677 17.4411 4.11258 17.1933L0.0358135 16.9814C0.0358135 17.265 0 17.5813 0 17.8619C0 22.7952 1.98765 27.2689 5.19296 30.51L8.0849 27.5852C5.61078 25.1201 4.07677 21.7029 4.07677 17.8977Z" fill="white"/>
<path d="M17.6558 4.15304C17.9005 4.15304 18.1094 4.15304 18.3541 4.18885L18.563 0.0673069C18.2825 0.0673069 17.9691 0.0314941 17.6916 0.0314941C12.812 0.0314941 8.38603 2.04004 5.17773 5.28116L8.06967 8.20594C10.511 5.70496 13.9252 4.15304 17.6558 4.15304Z" fill="white"/>
<path d="M17.6709 31.6357C17.4262 31.6357 17.2173 31.6357 16.9726 31.5999L16.7637 35.7214C17.0442 35.7214 17.3576 35.7572 17.6351 35.7572C22.5147 35.7572 26.9437 33.7487 30.149 30.5075L27.257 27.5828C24.8157 30.1196 21.4344 31.6357 17.6709 31.6357Z" fill="white"/>
<path d="M25.3507 6.55388L28.8007 3.98127C25.7685 1.51611 21.9006 0 17.6836 0V4.12154C20.5427 4.15736 23.1899 5.03777 25.3507 6.55388Z" fill="white"/>
<path d="M35.3888 17.9006C35.3888 16.8083 35.2844 15.7518 35.1083 14.6953L31.3091 17.5485C31.3091 17.6529 31.3091 17.7962 31.3091 17.9006C31.3091 21.9535 29.5661 25.5826 26.8145 28.0836L29.5661 31.1486C33.1236 27.9075 35.3888 23.1503 35.3888 17.9006Z" fill="white"/>
<path d="M17.6712 31.6342C13.663 31.6342 10.0727 29.8734 7.59862 27.0889L4.56641 29.8734C7.80753 33.5025 12.4782 35.7557 17.6712 35.7557V31.6342Z" fill="white"/>
<path d="M8.57436 7.71836L5.8197 4.65332C2.22939 7.93026 0 12.6517 0 17.9013H4.07677C4.07677 13.8843 5.8197 10.2223 8.57436 7.71836Z" fill="white"/>
</svg>
