<svg width="20" height="21" viewBox="0 0 20 21" fill="none" xmlns="http://www.w3.org/2000/svg">
<path d="M9.33194 0.0215565C6.881 0.259552 4.75574 1.49964 3.4071 3.47876C2.78497 4.38899 2.35073 5.40778 2.15031 6.42657L2.10438 6.66039L1.67432 6.68127C1.30689 6.69797 1.20668 6.71885 0.968685 6.8274C0.588726 7.00695 0.34238 7.24494 0.154489 7.6249L0 7.94223V12.0842L0.154489 12.4015C0.34238 12.7815 0.584551 13.0153 0.97286 13.199L1.25261 13.3326H2.07516C2.97704 13.3326 3.00209 13.3243 3.21086 13.0445C3.29854 12.9318 3.29854 12.8733 3.31942 10.0633C3.34447 7.29922 3.34864 7.17814 3.43633 6.7439C4.00418 4.02573 6.02923 2.00903 8.74739 1.44953C9.41962 1.31174 10.5553 1.30757 11.2317 1.44536C13.9582 1.98815 16.0125 4.03826 16.5637 6.76895C16.6597 7.22824 16.6597 7.29087 16.6597 9.99233C16.6597 13.0905 16.6597 13.1113 16.3424 14.0758C15.6701 16.1385 14.0501 17.746 12.0042 18.3806C11.4029 18.5644 10.9603 18.6479 10.2797 18.6896C9.70772 18.7272 9.62422 18.7606 9.4405 19.0069C9.31942 19.1698 9.31942 19.5623 9.4405 19.7251C9.66597 20.0299 9.89562 20.0758 10.7349 19.9965C11.737 19.8963 12.5887 19.6583 13.4864 19.2199C15.0313 18.4683 16.2255 17.3159 17.0689 15.771C17.3946 15.1698 17.7119 14.2888 17.8497 13.5998L17.8956 13.366L18.3257 13.3452C18.6931 13.3285 18.7933 13.3076 19.0313 13.199C19.4113 13.0195 19.6576 12.7815 19.8455 12.4015L20 12.0842V7.94223L19.8455 7.6249C19.6576 7.24494 19.4113 7.00695 19.0313 6.8274C18.7933 6.71885 18.6931 6.69797 18.3257 6.68127L17.8956 6.66039L17.8497 6.42657C17.5115 4.72302 16.5052 3.01529 15.1816 1.90882C13.6743 0.643686 11.833 -0.0243725 9.93737 0.000679694C9.68685 0.00485506 9.41127 0.0132058 9.33194 0.0215565Z" fill="white"/>
<path d="M9.41545 2.68962C8.17119 2.84828 7.11482 3.36602 6.238 4.24703C5.60752 4.87751 5.24008 5.45788 4.95616 6.25538C4.68058 7.04452 4.67641 7.07375 4.67641 9.67918C4.67641 11.8295 4.68476 12.0717 4.75574 12.3932C4.99374 13.4746 5.46138 14.3389 6.238 15.1113C7.01044 15.8879 7.88309 16.3639 8.95616 16.5936C9.45303 16.7021 10.547 16.7021 11.0438 16.5936C12.1253 16.3598 12.9729 15.8963 13.762 15.1113C14.5344 14.3389 15.0063 13.4746 15.2443 12.3932C15.3152 12.0717 15.3236 11.8295 15.3236 9.67918C15.3236 7.52887 15.3152 7.28669 15.2443 6.96519C15.0063 5.88377 14.5344 5.01947 13.762 4.24703C12.9896 3.47458 12.1754 3.02365 11.1273 2.78565C10.7808 2.70632 9.7453 2.64786 9.41545 2.68962Z" fill="white"/>
</svg>
