<svg width="120" height="37" viewBox="0 0 120 37" fill="none" xmlns="http://www.w3.org/2000/svg">
<path d="M59.7448 15.7041C58.9168 15.3856 57.834 15.2902 56.6556 15.2902H50.0946V13.2518H61.3691V9.74854H45.4766V24.9085H56.2415C57.7385 24.9085 58.8529 24.7811 59.6812 24.4624C61.4329 23.7936 62.6112 22.1694 62.6112 20.0356C62.6112 17.87 61.4965 16.373 59.7448 15.7041ZM57.4517 20.9592C57.197 21.0548 56.8466 21.0865 56.4006 21.0865H50.0946V18.6661H56.4006C56.9104 18.6661 57.3242 18.6981 57.6428 18.8572C58.0249 19.0483 58.2161 19.3987 58.2161 19.8444C58.2161 20.2903 57.9932 20.768 57.4517 20.9592Z" fill="#333333"/>
<path d="M75.5522 9.74854H68.8004L62.5898 24.9085H67.8131L68.673 22.7109H75.6796L76.5715 24.9085H81.7629L75.5522 9.74854ZM69.8194 19.3667L72.0172 13.2518H72.3674L74.565 19.3667H69.8194Z" fill="#333333"/>
<path d="M87.7077 19.2714V24.9085H83.0898V9.74854H87.7077V15.2902H95.1285V9.74854H99.7466V24.9085H95.1285V19.2714H87.7077Z" fill="#333333"/>
<path d="M107.069 19.1758V24.9085H102.451V9.74854H107.069V15.4495H108.343L113.917 9.74854H119.713L112.324 17.01L120 24.9085H113.853L108.343 19.1758H107.069Z" fill="#333333"/>
<path d="M0 0H36.8167V18.5161C36.8167 23.2628 34.2844 27.6491 30.1739 30.0227L18.4083 36.8166L6.64281 30.0227C2.53219 27.6491 0 23.2628 0 18.5161V0Z" fill="white"/>
<path fill-rule="evenodd" clip-rule="evenodd" d="M10.0977 9.74854V15.5074C10.8852 14.6182 12.317 14.0163 13.9541 14.0163H15.7332V20.711C15.7332 22.492 15.2492 24.051 14.5312 24.9085H22.2698C21.5533 24.0501 21.0705 22.4931 21.0705 20.7144V14.0163H22.8496C24.4867 14.0163 25.9185 14.6182 26.7061 15.5074V9.74854H10.0977Z" fill="#333333"/>
</svg>
