<svg width="23" height="23" viewBox="0 0 23 23" fill="none" xmlns="http://www.w3.org/2000/svg">
<path d="M4.31825 21.0255L2.3 6.9H20.7L18.6818 21.0255C18.6034 21.5735 18.33 22.0749 17.9117 22.4377C17.4935 22.8004 16.9584 23 16.4047 23H6.59525C6.04161 23 5.50654 22.8004 5.08827 22.4377C4.66999 22.0749 4.39659 21.5735 4.31825 21.0255ZM21.85 2.3H16.1V1.15C16.1 0.845001 15.9788 0.552494 15.7632 0.336827C15.5475 0.12116 15.255 0 14.95 0H8.05C7.745 0 7.45249 0.12116 7.23683 0.336827C7.02116 0.552494 6.9 0.845001 6.9 1.15V2.3H1.15C0.845001 2.3 0.552494 2.42116 0.336827 2.63683C0.12116 2.85249 0 3.145 0 3.45C0 3.755 0.12116 4.04751 0.336827 4.26317C0.552494 4.47884 0.845001 4.6 1.15 4.6H21.85C22.155 4.6 22.4475 4.47884 22.6632 4.26317C22.8788 4.04751 23 3.755 23 3.45C23 3.145 22.8788 2.85249 22.6632 2.63683C22.4475 2.42116 22.155 2.3 21.85 2.3Z" fill="white"/>
</svg>
