<svg width="24" height="18" viewBox="0 0 24 18" fill="none" xmlns="http://www.w3.org/2000/svg">
<path d="M23.711 5.1275L13.0905 0.238734C12.746 0.0800623 12.3791 0 12 0C11.6208 0 11.254 0.0800623 10.9094 0.238734L0.288889 5.1275C0.113343 5.20864 0 5.38549 0 5.57876C0 5.77202 0.113343 5.94888 0.288889 6.03002L10.9094 10.9188C11.2539 11.0775 11.6208 11.1579 12 11.1579C12.3791 11.1579 12.746 11.0775 13.0906 10.9188L21.4724 7.06071V10.9457C21.1397 10.9832 20.8803 11.2664 20.8803 11.6085C20.8803 11.9065 21.0776 12.1646 21.3587 12.2468L20.7919 15.987H23.4017L22.835 12.2468C23.1161 12.1646 23.3133 11.9065 23.3133 11.6085C23.3133 11.2664 23.0539 10.9832 22.7213 10.9457V6.48569L23.7111 6.03002C23.8866 5.94888 24 5.77202 24 5.57876C24 5.38549 23.8866 5.20864 23.711 5.1275Z" fill="white"/>
<path d="M12 12.9281C11.4728 12.9281 10.962 12.816 10.4819 12.5951L5.28715 10.2037V14.9679C5.28715 16.0139 8.44773 17.3408 12 17.3408C15.5522 17.3408 18.7128 16.0138 18.7128 14.9679V10.2037L13.5179 12.5951C13.038 12.816 12.5273 12.9281 12 12.9281Z" fill="white"/>
</svg>
