<svg width="60" height="60" viewBox="0 0 60 60" fill="none" xmlns="http://www.w3.org/2000/svg">
<circle cx="30" cy="30" r="30" fill="#2B2E3A"/>
<path d="M29.772 18C30.2551 18 30.7381 18 31.2358 18C31.2358 18.4831 31.2358 18.9661 31.2358 19.4638C31.3616 19.4809 31.4874 19.498 31.617 19.5157C32.9615 19.7281 34.0311 20.4933 35.0998 21.2849C35.7714 21.7822 36.448 22.2462 37.1886 22.6354C37.2363 22.6605 37.2363 22.6605 37.2849 22.6861C38.8845 23.5136 40.6836 23.7942 42.4666 23.8411C42.5147 23.8424 42.5627 23.8436 42.6122 23.8449C42.6756 23.8462 42.6756 23.8462 42.7402 23.8475C42.8487 23.8552 42.8487 23.8552 42.9951 23.904C42.9951 24.3871 42.9951 24.8701 42.9951 25.3678C42.6953 25.3701 42.3955 25.3721 42.0957 25.3732C41.9945 25.3737 41.8932 25.3743 41.792 25.3752C41.1689 25.3804 40.5513 25.3626 39.9296 25.3185C39.862 25.3138 39.7944 25.3091 39.7268 25.3045C39.5639 25.2932 39.4009 25.2818 39.238 25.2703C39.2488 25.3079 39.2596 25.3455 39.2707 25.3843C39.5335 26.2988 39.7962 27.2134 40.0587 28.1281C40.1856 28.5704 40.3126 29.0127 40.4397 29.4549C40.5504 29.8403 40.6611 30.2256 40.7716 30.6111C40.8302 30.8152 40.8888 31.0194 40.9475 31.2235C41.0028 31.4155 41.0579 31.6075 41.1129 31.7995C41.1331 31.8701 41.1534 31.9408 41.1738 32.0114C41.2014 32.1074 41.2289 32.2036 41.2564 32.2997C41.2719 32.3536 41.2874 32.4075 41.3033 32.463C41.3361 32.5893 41.3361 32.5893 41.3361 32.6869C41.8836 32.6869 42.431 32.6869 42.9951 32.6869C43.0259 33.8759 42.9333 34.6956 42.0928 35.5945C41.1086 36.5404 39.6801 37.0749 38.3197 37.09C38.2839 37.0904 38.2482 37.0909 38.2114 37.0914C36.5271 37.1094 35.052 36.8191 33.7243 35.7121C33.6912 35.6847 33.6581 35.6573 33.624 35.629C33.2033 35.2451 32.9029 34.6934 32.7484 34.1507C32.7355 34.1081 32.7355 34.1081 32.7223 34.0646C32.6938 33.9274 32.6942 33.7992 32.6949 33.659C32.695 33.6079 32.6951 33.5569 32.6952 33.5043C32.6957 33.4399 32.6961 33.3754 32.6966 33.309C32.6976 33.1037 32.6986 32.8984 32.6996 32.6869C33.4967 32.6627 33.4967 32.6627 34.3098 32.6381C35.0344 30.094 35.759 27.5499 36.5055 24.9287C35.9017 24.8079 35.9017 24.8079 35.2857 24.6847C34.8776 24.5924 34.4698 24.4992 34.0626 24.4029C33.5915 24.2918 33.1215 24.1872 32.6426 24.1148C32.6079 24.1096 32.5732 24.1043 32.5375 24.0989C32.105 24.0375 31.6704 23.9986 31.2358 23.9528C31.2358 28.8961 31.2358 33.8394 31.2358 38.9325C31.3163 38.9647 31.3968 38.9969 31.4798 39.0301C31.5431 39.0675 31.6052 39.1071 31.666 39.1486C31.7187 39.1843 31.7187 39.1843 31.7725 39.2207C31.8103 39.2467 31.8481 39.2727 31.8871 39.2994C31.9275 39.3268 31.9678 39.3542 32.0094 39.3825C32.0971 39.442 32.1846 39.5016 32.2721 39.5613C32.5087 39.7226 32.7459 39.8832 32.983 40.0437C33.0321 40.0769 33.0812 40.1102 33.1318 40.1444C33.6457 40.4918 34.1635 40.8333 34.6819 41.1739C34.7712 41.2327 34.8605 41.2914 34.9498 41.3502C34.9935 41.3789 35.0373 41.4077 35.0823 41.4373C35.1257 41.4658 35.169 41.4943 35.2136 41.5237C35.2564 41.5518 35.2992 41.58 35.3433 41.609C35.7484 41.8755 36.1531 42.1427 36.5569 42.4111C36.6279 42.4582 36.6988 42.5052 36.7699 42.5522C36.8661 42.6159 36.9622 42.6798 37.0583 42.7437C37.0867 42.7625 37.1151 42.7812 37.1443 42.8005C37.2088 42.8436 37.272 42.8884 37.335 42.9336C37.335 42.9497 37.335 42.9658 37.335 42.9824C32.8265 42.9824 28.3179 42.9824 23.6728 42.9824C23.8166 42.8673 23.9519 42.7596 24.103 42.6576C24.1557 42.6219 24.1557 42.6219 24.2095 42.5855C24.2473 42.56 24.2851 42.5346 24.3241 42.5083C24.3645 42.4811 24.4048 42.4538 24.4464 42.4257C24.5798 42.3356 24.7134 42.2458 24.8469 42.1559C24.893 42.1248 24.9391 42.0938 24.9866 42.0618C25.7854 41.5235 26.5886 40.9923 27.3939 40.4637C27.8076 40.192 28.2203 39.919 28.6295 39.6406C28.6835 39.6038 28.6835 39.6038 28.7386 39.5663C28.9051 39.4529 29.0714 39.3391 29.2373 39.2248C29.2947 39.1855 29.3521 39.1462 29.4095 39.1069C29.4587 39.073 29.5079 39.039 29.5586 39.0041C29.6744 38.9325 29.6744 38.9325 29.772 38.9325C29.772 33.9892 29.772 29.0459 29.772 23.9528C28.8188 24.0684 27.9167 24.1781 26.9908 24.392C26.7631 24.4439 26.5354 24.4957 26.3077 24.5474C26.0643 24.6028 25.8209 24.6583 25.5777 24.7145C25.5319 24.725 25.4861 24.7355 25.439 24.7464C25.3526 24.7662 25.2663 24.7861 25.18 24.8062C25.1407 24.8152 25.1015 24.8242 25.0611 24.8334C25.0103 24.8452 25.0103 24.8452 24.9585 24.8572C24.8073 24.8872 24.655 24.9073 24.5023 24.9287C24.5193 24.9878 24.5193 24.9878 24.5366 25.0481C24.8116 26.0054 25.0864 26.9627 25.3611 27.9201C25.494 28.3831 25.6269 28.846 25.7599 29.309C25.8758 29.7124 25.9916 30.1157 26.1073 30.5192C26.1686 30.7329 26.2299 30.9466 26.2914 31.1603C26.3491 31.3612 26.4068 31.5622 26.4644 31.7632C26.4856 31.8371 26.5068 31.911 26.5281 31.9849C26.5571 32.0855 26.5859 32.1861 26.6146 32.2867C26.6308 32.3431 26.647 32.3996 26.6637 32.4577C26.698 32.5893 26.698 32.5893 26.698 32.6869C27.2294 32.6869 27.7607 32.6869 28.3082 32.6869C28.3376 34.1226 28.3376 34.1226 28.113 34.5898C28.0899 34.6383 28.0667 34.6868 28.0429 34.7368C27.4932 35.7687 26.4912 36.4066 25.4111 36.7764C25.372 36.79 25.333 36.8035 25.2927 36.8175C24.6053 37.0405 23.9151 37.1056 23.1971 37.0997C23.1589 37.0995 23.1208 37.0994 23.0815 37.0992C21.6871 37.0912 20.3381 36.745 19.2326 35.8585C19.1939 35.8279 19.1553 35.7973 19.1155 35.7659C18.5653 35.3057 18.1592 34.6609 18.0127 33.9555C17.9964 33.7334 17.9988 33.5133 18.0036 33.2907C18.0066 33.0915 18.0096 32.8922 18.0127 32.6869C18.5602 32.6708 19.1077 32.6547 19.6717 32.6381C19.725 32.4497 19.7784 32.2612 19.8333 32.0671C19.9096 31.7979 19.9858 31.5288 20.0621 31.2597C20.0721 31.2244 20.0821 31.189 20.0924 31.1526C20.4739 29.8064 20.8577 28.4607 21.2423 27.1153C21.2555 27.0691 21.2687 27.0228 21.2823 26.9752C21.4447 26.4069 21.6073 25.8386 21.7698 25.2703C21.732 25.2732 21.6941 25.2761 21.6551 25.2791C20.7911 25.3446 19.9348 25.3813 19.0679 25.3739C18.9641 25.3735 18.8603 25.373 18.7564 25.3726C18.5085 25.3716 18.2606 25.3697 18.0127 25.3678C18.0127 24.8848 18.0127 24.4017 18.0127 23.904C18.1538 23.857 18.2487 23.8479 18.3956 23.8449C18.4677 23.843 18.4677 23.843 18.5412 23.8411C18.5932 23.8397 18.6453 23.8384 18.6989 23.8369C21.5146 23.7398 23.8237 22.8538 26.0637 21.1716C27.2053 20.3147 28.3322 19.6438 29.772 19.4638C29.772 18.9808 29.772 18.4977 29.772 18ZM23.1361 26.0022C23.0545 26.289 22.973 26.5757 22.8915 26.8625C22.8789 26.9068 22.8663 26.9511 22.8534 26.9967C22.7012 27.5321 22.5491 28.0674 22.3971 28.6027C22.3833 28.6516 22.3694 28.7004 22.3551 28.7507C22.2995 28.9465 22.2439 29.1424 22.1883 29.3383C22.0402 29.8599 21.8919 30.3815 21.7432 30.903C21.6828 31.1148 21.6226 31.3267 21.5624 31.5385C21.5361 31.6308 21.5098 31.723 21.4834 31.8152C21.448 31.9388 21.4129 32.0625 21.3778 32.1862C21.3678 32.2209 21.3578 32.2556 21.3475 32.2914C21.3088 32.4286 21.2819 32.5434 21.2819 32.6869C22.5378 32.6869 23.7938 32.6869 25.0878 32.6869C25.0559 32.4638 25.0252 32.2756 24.9646 32.0635C24.9493 32.0096 24.9341 31.9558 24.9184 31.9003C24.9017 31.8422 24.885 31.7841 24.8677 31.7243C24.8413 31.6314 24.8413 31.6314 24.8144 31.5366C24.7663 31.3677 24.7179 31.1987 24.6695 31.0298C24.6189 30.853 24.5685 30.6761 24.5181 30.4992C24.4227 30.1646 24.3271 29.8301 24.2314 29.4956C24.1224 29.1146 24.0137 28.7336 23.905 28.3525C23.6815 27.569 23.4577 26.7855 23.2336 26.0022C23.2014 26.0022 23.1692 26.0022 23.1361 26.0022ZM37.7742 26.051C37.5322 26.8945 37.2904 27.7381 37.0489 28.5818C36.9368 28.9735 36.8246 29.3652 36.7122 29.7568C36.6143 30.0981 36.5165 30.4395 36.4188 30.7808C36.3671 30.9617 36.3153 31.1424 36.2634 31.3232C36.2145 31.4932 36.1658 31.6633 36.1173 31.8335C36.0909 31.9258 36.0643 32.0182 36.0377 32.1105C36.0221 32.1653 36.0065 32.2201 35.9904 32.2765C35.9767 32.3243 35.963 32.372 35.949 32.4212C35.9142 32.5438 35.9143 32.5438 35.92 32.6869C37.176 32.6869 38.4319 32.6869 39.7259 32.6869C39.6928 32.4552 39.6586 32.2596 39.5952 32.0387C39.5783 31.9795 39.5614 31.9204 39.544 31.8594C39.5253 31.795 39.5067 31.7305 39.488 31.666C39.4685 31.5978 39.4489 31.5295 39.4293 31.4612C39.3767 31.2775 39.3238 31.0939 39.2709 30.9103C39.2158 30.7193 39.161 30.5282 39.1062 30.3372C38.9937 29.945 38.8808 29.5529 38.7678 29.1609C38.7031 28.9363 38.6385 28.7116 38.5738 28.487C38.3402 27.6749 38.1062 26.8628 37.8717 26.051C37.8395 26.051 37.8073 26.051 37.7742 26.051Z" fill="white"/>
</svg>
