<svg width="70" height="70" viewBox="0 0 70 70" fill="none" xmlns="http://www.w3.org/2000/svg">
<circle cx="35" cy="35" r="35" fill="white"/>
<path d="M33.4808 18C34.1571 18 34.8334 18 35.5301 18C35.5301 18.6763 35.5301 19.3526 35.5301 20.0493C35.7062 20.0733 35.8824 20.0972 36.0638 20.1219C37.9461 20.4193 39.4436 21.4906 40.9397 22.5989C41.88 23.2951 42.8271 23.9446 43.8641 24.4896C43.9308 24.5247 43.9308 24.5247 43.9989 24.5605C46.2383 25.719 48.757 26.1119 51.2533 26.1775C51.3205 26.1793 51.3878 26.1811 51.457 26.1829C51.5458 26.1847 51.5458 26.1847 51.6363 26.1866C51.7882 26.1973 51.7882 26.1973 51.9931 26.2656C51.9931 26.9419 51.9931 27.6182 51.9931 28.315C51.5734 28.3182 51.1537 28.3209 50.734 28.3225C50.5922 28.3232 50.4505 28.3241 50.3088 28.3253C49.4364 28.3325 48.5718 28.3077 47.7014 28.2458C47.6068 28.2393 47.5122 28.2328 47.4176 28.2263C47.1894 28.2105 46.9613 28.1945 46.7332 28.1784C46.7483 28.231 46.7634 28.2837 46.779 28.338C47.1469 29.6184 47.5146 30.8988 47.8821 32.1793C48.0598 32.7985 48.2376 33.4177 48.4156 34.0369C48.5706 34.5764 48.7255 35.1159 48.8803 35.6555C48.9623 35.9413 49.0443 36.2272 49.1265 36.5129C49.2039 36.7817 49.281 37.0505 49.358 37.3193C49.3864 37.4182 49.4148 37.5171 49.4433 37.6159C49.482 37.7504 49.5205 37.885 49.559 38.0196C49.5807 38.095 49.6023 38.1705 49.6247 38.2482C49.6705 38.425 49.6705 38.425 49.6705 38.5617C50.437 38.5617 51.2034 38.5617 51.9931 38.5617C52.0362 40.2262 51.9066 41.3738 50.7299 42.6323C49.352 43.9566 47.3521 44.7048 45.4475 44.7259C45.3975 44.7266 45.3474 44.7273 45.2959 44.728C42.9379 44.7531 40.8728 44.3468 39.014 42.7969C38.9677 42.7586 38.9214 42.7202 38.8736 42.6806C38.2846 42.1432 37.8641 41.3707 37.6478 40.611C37.6297 40.5513 37.6297 40.5513 37.6112 40.4905C37.5713 40.2983 37.5718 40.1188 37.5728 39.9225C37.573 39.8511 37.5731 39.7797 37.5733 39.7061C37.5739 39.6158 37.5746 39.5256 37.5752 39.4326C37.5766 39.1452 37.578 38.8578 37.5795 38.5617C38.6953 38.5278 38.6953 38.5278 39.8337 38.4933C40.8482 34.9316 41.8626 31.3699 42.9077 27.7002C42.0624 27.5311 42.0624 27.5311 41.2 27.3586C40.6286 27.2294 40.0577 27.0988 39.4877 26.9641C38.8281 26.8086 38.17 26.6621 37.4997 26.5608C37.4511 26.5534 37.4025 26.5461 37.3525 26.5385C36.747 26.4524 36.1386 26.398 35.5301 26.334C35.5301 33.2546 35.5301 40.1752 35.5301 47.3055C35.6428 47.3506 35.7556 47.3956 35.8717 47.4421C35.9603 47.4946 36.0473 47.5499 36.1324 47.608C36.2062 47.658 36.2062 47.658 36.2815 47.709C36.3344 47.7454 36.3874 47.7817 36.4419 47.8191C36.4985 47.8575 36.555 47.8959 36.6132 47.9355C36.7359 48.0188 36.8584 48.1022 36.9809 48.1858C37.3122 48.4117 37.6442 48.6364 37.9763 48.8612C38.045 48.9077 38.1137 48.9542 38.1846 49.0022C38.904 49.4886 39.6288 49.9666 40.3546 50.4435C40.4797 50.5258 40.6047 50.608 40.7297 50.6902C40.791 50.7305 40.8522 50.7708 40.9153 50.8123C40.9759 50.8522 41.0366 50.8921 41.0991 50.9332C41.159 50.9726 41.2189 51.012 41.2806 51.0526C41.8478 51.4257 42.4143 51.7997 42.9797 52.1755C43.079 52.2414 43.1784 52.3073 43.2778 52.3731C43.4125 52.4622 43.5471 52.5517 43.6816 52.6412C43.7213 52.6674 43.7611 52.6937 43.802 52.7207C43.8923 52.781 43.9809 52.8437 44.069 52.907C44.069 52.9295 44.069 52.9521 44.069 52.9753C37.7571 52.9753 31.4451 52.9753 24.9419 52.9753C25.1433 52.8142 25.3326 52.6635 25.5442 52.5206C25.618 52.4706 25.618 52.4706 25.6933 52.4196C25.7462 52.384 25.7992 52.3484 25.8537 52.3117C25.9102 52.2735 25.9668 52.2353 26.025 52.1959C26.2118 52.0699 26.3987 51.9441 26.5856 51.8183C26.6502 51.7748 26.7148 51.7313 26.7813 51.6864C27.8996 50.9329 29.0241 50.1892 30.1514 49.4492C30.7306 49.0688 31.3084 48.6867 31.8814 48.2968C31.957 48.2454 31.957 48.2454 32.0341 48.1929C32.2672 48.034 32.4999 47.8747 32.7322 47.7147C32.8126 47.6597 32.8929 47.6047 32.9733 47.5496C33.0421 47.5021 33.111 47.4547 33.182 47.4057C33.3442 47.3055 33.3442 47.3055 33.4808 47.3055C33.4808 40.3849 33.4808 33.4643 33.4808 26.334C32.1463 26.4957 30.8834 26.6493 29.5871 26.9488C29.2684 27.0215 28.9496 27.0939 28.6308 27.1664C28.29 27.2439 27.9493 27.3217 27.6088 27.4003C27.5447 27.415 27.4806 27.4297 27.4146 27.4449C27.2937 27.4727 27.1728 27.5006 27.052 27.5287C26.997 27.5413 26.9421 27.5539 26.8856 27.5668C26.8145 27.5833 26.8145 27.5833 26.742 27.6C26.5302 27.642 26.317 27.6702 26.1032 27.7002C26.127 27.7829 26.127 27.7829 26.1512 27.8673C26.5362 29.2075 26.921 30.5478 27.3056 31.8881C27.4916 32.5363 27.6776 33.1845 27.8638 33.8326C28.0261 34.3973 28.1882 34.962 28.3502 35.5268C28.436 35.826 28.5219 36.1252 28.6079 36.4244C28.6888 36.7057 28.7695 36.987 28.8501 37.2684C28.8798 37.3719 28.9095 37.4754 28.9393 37.5789C28.9799 37.7197 29.0202 37.8606 29.0605 38.0014C29.0832 38.0804 29.1058 38.1594 29.1292 38.2407C29.1772 38.425 29.1772 38.425 29.1772 38.5617C29.9211 38.5617 30.665 38.5617 31.4315 38.5617C31.4727 40.5716 31.4727 40.5716 31.1582 41.2258C31.1258 41.2937 31.0934 41.3616 31.06 41.4315C30.2905 42.8762 28.8877 43.7693 27.3755 44.287C27.3208 44.306 27.2661 44.325 27.2098 44.3445C26.2474 44.6567 25.2812 44.7479 24.2759 44.7395C24.2225 44.7393 24.1691 44.7391 24.1141 44.7389C22.1619 44.7277 20.2733 44.2429 18.7256 43.0019C18.6715 42.9591 18.6175 42.9163 18.5618 42.8722C17.7914 42.228 17.2229 41.3252 17.0178 40.3377C16.9949 40.0267 16.9983 39.7187 17.005 39.407C17.0092 39.128 17.0135 38.8491 17.0178 38.5617C17.7843 38.5391 18.5507 38.5166 19.3404 38.4933C19.4151 38.2295 19.4897 37.9657 19.5667 37.6939C19.6734 37.3171 19.7801 36.9403 19.8869 36.5636C19.9009 36.5141 19.9149 36.4647 19.9293 36.4137C20.4635 34.5289 21.0007 32.645 21.5392 30.7614C21.5577 30.6967 21.5761 30.632 21.5952 30.5653C21.8226 29.7696 22.0502 28.974 22.2778 28.1784C22.2248 28.1825 22.1718 28.1865 22.1172 28.1908C20.9076 28.2824 19.7087 28.3339 18.495 28.3235C18.3497 28.3228 18.2044 28.3222 18.059 28.3217C17.7119 28.3203 17.3649 28.3176 17.0178 28.315C17.0178 27.6387 17.0178 26.9624 17.0178 26.2656C17.2153 26.1998 17.3481 26.1871 17.5539 26.1829C17.6548 26.1803 17.6548 26.1803 17.7576 26.1775C17.8305 26.1756 17.9034 26.1737 17.9784 26.1717C21.9204 26.0357 25.1532 24.7953 28.2892 22.4402C29.8874 21.2406 31.465 20.3013 33.4808 20.0493C33.4808 19.3731 33.4808 18.6968 33.4808 18ZM24.1905 29.203C24.0764 29.6045 23.9622 30.006 23.8481 30.4075C23.8305 30.4695 23.8129 30.5315 23.7947 30.5954C23.5817 31.3449 23.3688 32.0943 23.156 32.8438C23.1366 32.9122 23.1172 32.9805 23.0972 33.0509C23.0193 33.3251 22.9414 33.5994 22.8636 33.8736C22.6562 34.6039 22.4487 35.3341 22.2405 36.0642C22.156 36.3607 22.0716 36.6573 21.9873 36.9539C21.9506 37.0831 21.9137 37.2122 21.8768 37.3413C21.8272 37.5143 21.778 37.6875 21.7289 37.8607C21.7149 37.9093 21.7009 37.9578 21.6864 38.0079C21.6323 38.2 21.5947 38.3608 21.5947 38.5617C23.353 38.5617 25.1113 38.5617 26.9229 38.5617C26.8783 38.2493 26.8353 37.9859 26.7504 37.6888C26.7291 37.6135 26.7077 37.5381 26.6857 37.4604C26.6623 37.3791 26.6389 37.2978 26.6148 37.214C26.5779 37.084 26.5779 37.084 26.5401 36.9513C26.4728 36.7147 26.4051 36.4782 26.3373 36.2418C26.2664 35.9942 26.1959 35.7466 26.1253 35.4989C25.9918 35.0305 25.858 34.5621 25.724 34.0938C25.5714 33.5605 25.4192 33.027 25.267 32.4935C24.9541 31.3966 24.6408 30.2998 24.3271 29.203C24.282 29.203 24.2369 29.203 24.1905 29.203ZM44.6838 29.2713C44.345 30.4523 44.0066 31.6333 43.6685 32.8145C43.5115 33.3629 43.3544 33.9113 43.1971 34.4596C43.06 34.9374 42.923 35.4152 42.7864 35.8932C42.714 36.1463 42.6415 36.3994 42.5687 36.6525C42.5003 36.8905 42.4322 37.1287 42.3642 37.3668C42.3272 37.4962 42.29 37.6254 42.2527 37.7547C42.2309 37.8314 42.2091 37.9081 42.1866 37.9872C42.1674 38.054 42.1483 38.1208 42.1285 38.1896C42.0799 38.3613 42.08 38.3613 42.088 38.5617C43.8463 38.5617 45.6047 38.5617 47.4163 38.5617C47.3699 38.2373 47.3221 37.9634 47.2332 37.6542C47.2096 37.5714 47.1859 37.4885 47.1616 37.4032C47.1355 37.313 47.1094 37.2227 47.0833 37.1325C47.0558 37.0368 47.0285 36.9412 47.0011 36.8456C46.9274 36.5885 46.8534 36.3315 46.7792 36.0745C46.7022 35.807 46.6255 35.5395 46.5487 35.272C46.3911 34.723 46.2331 34.1741 46.0749 33.6252C45.9843 33.3108 45.8938 32.9963 45.8034 32.6818C45.4763 31.5448 45.1487 30.408 44.8204 29.2713C44.7754 29.2713 44.7303 29.2713 44.6838 29.2713Z" fill="#2B2E3A"/>
</svg>
